<svg xmlns="http://www.w3.org/2000/svg" version="1.0" preserveAspectRatio="xMidYMid meet" viewBox="18.14 41.01 256.86 35.09">
<metadata>
Created by potrace 1.10, written by Peter Selinger 2001-2011
</metadata>
<g transform="translate(0.000000,121.000000) scale(0.100000,-0.100000)" fill="#000000" stroke="none">
<path d="M307 793 c-4 -3 -7 -15 -7 -25 0 -15 -8 -18 -47 -18 -77 0 -76 1 -68 -151 4 -77 12 -137 18 -141 6 -4 93 -7 193 -8 l182 -1 6 98 c4 54 8 118 9 143 l2 45 -62 3 c-54 3 -63 6 -63 22 0 11 -9 24 -19 30 -22 11 -134 14 -144 3z m107 -29 c29 -11 17 -24 -23 -24 -38 0 -57 10 -44 24 8 8 46 8 67 0z m164 -49 c2 -2 1 -26 -3 -54 l-7 -50 -68 -15 c-85 -20 -80 -20 -80 4 0 11 -4 20 -9 20 -5 0 -23 3 -40 6 -27 6 -31 4 -31 -15 0 -17 -6 -21 -32 -20 -18 0 -51 6 -73 13 -38 11 -40 13 -42 56 -4 77 -15 74 194 66 103 -4 189 -9 191 -11z m-176 -135 c-3 -33 -17 -44 -39 -35 -16 8 -16 9 5 12 30 6 30 40 0 46 -16 4 -13 5 7 4 26 -2 30 -6 27 -27z m-118 -5 c36 -6 46 -11 46 -26 0 -28 80 -28 87 0 3 14 17 20 56 24 29 3 60 8 70 12 15 6 17 0 17 -54 l0 -61 -175 0 -175 0 0 61 c0 48 3 60 14 56 7 -3 34 -9 60 -12z"/>
<path d="M800 750 c0 -5 11 -10 25 -10 l25 0 0 -105 c0 -117 -7 -129 -75 -124 -19 2 -37 0 -41 -4 -4 -4 17 -7 48 -7 81 0 88 11 88 148 l0 112 -35 0 c-19 0 -35 -4 -35 -10z"/>
<path d="M1090 630 l0 -130 60 0 c69 0 80 11 80 85 0 71 -12 85 -70 85 l-50 0 0 45 c0 25 -4 45 -10 45 -6 0 -10 -50 -10 -130z m108 18 c7 -7 12 -35 12 -63 0 -61 -12 -75 -62 -75 l-38 0 0 75 0 75 38 0 c21 0 43 -5 50 -12z"/>
<path d="M1440 750 c0 -5 28 -10 63 -12 l62 -3 0 -37 c0 -33 -6 -41 -65 -85 -54 -40 -66 -54 -68 -81 l-3 -32 87 0 c48 0 84 3 80 7 -4 4 -38 6 -77 4 -67 -3 -69 -2 -69 22 0 19 15 34 70 71 69 46 70 47 70 91 0 34 -5 47 -19 55 -25 13 -131 13 -131 0z"/>
<path d="M1649 743 c-18 -21 -27 -243 -10 -243 7 0 11 23 11 60 l0 60 75 0 c43 0 75 4 75 10 0 6 -32 10 -75 10 l-75 0 0 38 c0 52 14 62 86 62 35 0 66 5 69 10 4 6 -21 10 -68 10 -57 0 -78 -4 -88 -17z"/>
<path d="M932 664 c-19 -13 -22 -24 -22 -79 0 -44 5 -68 16 -79 20 -20 73 -20 102 0 19 13 22 24 22 79 0 55 -3 66 -22 79 -12 9 -34 16 -48 16 -14 0 -36 -7 -48 -16z m93 -79 l0 -70 -45 0 -45 0 -3 59 c-4 81 0 88 50 84 l43 -3 0 -70z"/>
<path d="M1266 654 c-15 -40 -7 -52 52 -71 37 -13 58 -26 60 -38 5 -25 -15 -35 -70 -35 -27 0 -48 -3 -48 -7 0 -5 27 -6 61 -5 52 3 62 7 71 27 16 36 5 49 -56 70 -46 16 -56 23 -54 40 2 16 13 21 58 26 l55 6 -61 1 c-48 2 -63 -2 -68 -14z"/>
<path d="M1830 585 c0 -50 4 -85 10 -85 6 0 10 35 10 85 0 50 -4 85 -10 85 -6 0 -10 -35 -10 -85z"/>
<path d="M1900 590 c0 -44 0 -82 0 -85 0 -3 3 -5 6 -5 4 0 7 35 8 78 l1 77 38 3 c57 5 67 -9 67 -89 0 -39 4 -69 10 -69 13 0 13 126 0 151 -9 15 -22 19 -70 19 l-60 0 0 -80z"/>
<path d="M2084 657 c-3 -8 -4 -45 -2 -83 l3 -69 70 -3 c38 -2 66 0 62 4 -4 4 -29 7 -56 5 -52 -3 -55 -1 -65 42 l-6 27 65 0 65 0 0 33 c0 18 -5 38 -12 45 -17 17 -117 16 -124 -1z m100 -3 c10 -4 16 -18 16 -36 0 -29 0 -29 -52 -26 -55 3 -59 8 -43 56 5 13 52 16 79 6z"/>
<path d="M2258 645 c-14 -31 -8 -38 57 -63 40 -16 50 -24 50 -43 0 -22 -5 -25 -60 -30 l-60 -6 70 1 70 1 0 35 c0 32 -3 36 -50 53 -27 10 -54 22 -59 27 -17 17 15 39 62 43 45 3 45 3 -11 5 -53 2 -58 0 -69 -23z"/>
<path d="M2437 663 c-4 -3 -7 -19 -7 -34 0 -24 6 -29 58 -46 37 -13 58 -26 60 -38 5 -25 -15 -35 -70 -35 -27 0 -48 -3 -48 -7 0 -5 27 -6 61 -5 52 3 62 7 71 27 16 36 5 49 -56 70 -46 16 -56 23 -54 40 2 16 13 21 53 26 l50 6 -56 1 c-31 1 -59 -1 -62 -5z"/>
<path d="M2617 663 c-10 -9 -9 -151 1 -157 14 -8 117 -9 119 -1 2 5 -18 8 -43 6 -51 -3 -74 11 -74 45 0 23 3 24 65 24 63 0 65 1 65 26 0 50 -16 64 -74 64 -29 0 -56 -3 -59 -7z m101 -15 c7 -7 12 -22 12 -35 0 -21 -4 -23 -50 -23 -56 0 -69 14 -50 49 12 24 68 29 88 9z"/>
</g>
</svg>